PathFileType	4	(X/Y/Z)	c:/Users/goper/Files/vsCode/490R/osim_files/A03/A03_Static03.trc
DataRate	CameraRate	NumFrames	NumMarkers	Units                	OrigDataRate	OrigDataStartFrame	OrigNumFrames
250.00	250.00	9	36	mm	250.0	1495	1993
                Frame#	Time	LPSIS			LASIS			LTH1			LTH2			LTH3			LTH4			LLFE			LMFE			LSH1			LSH2			LSH3			LSH4			LLMAL			LMMAL			LCAL			LMTP5			LTOE			LMTP1			RPSIS			RASIS			RTH1			RTH2			RTH3			RTH4			RLFE			RMFE			RSH1			RSH2			RSH3			RSH4			RLMAL			RMMAL			RCAL			RMTP1			RTOE			RMTP5		
		X1	Y1	Z1	X2	Y2	Z2	X3	Y3	Z3	X4	Y4	Z4	X5	Y5	Z5	X6	Y6	Z6	X7	Y7	Z7	X8	Y8	Z8	X9	Y9	Z9	X10	Y10	Z10	X11	Y11	Z11	X12	Y12	Z12	X13	Y13	Z13	X14	Y14	Z14	X15	Y15	Z15	X16	Y16	Z16	X17	Y17	Z17	X18	Y18	Z18	X19	Y19	Z19	X20	Y20	Z20	X21	Y21	Z21	X22	Y22	Z22	X23	Y23	Z23	X24	Y24	Z24	X25	Y25	Z25	X26	Y26	Z26	X27	Y27	Z27	X28	Y28	Z28	X29	Y29	Z29	X30	Y30	Z30	X31	Y31	Z31	X32	Y32	Z32	X33	Y33	Z33	X34	Y34	Z34	X35	Y35	Z35	X36	Y36	Z36

1495	5.97600	-362.78610	1047.67749	435.71735	-115.40421	993.45587	318.04529	-171.90959	646.12775	243.99019	-159.99321	604.58087	240.51602	-110.18855	653.45837	258.61444	-109.38043	609.79279	254.25769	-160.62126	558.01282	245.61848	-134.52654	531.21356	398.46423	-215.46213	477.92300	241.04109	-219.33501	429.58044	238.00616	-154.01999	464.58170	241.24567	-168.85068	419.03168	242.12216	-261.49963	105.01170	236.86617	-244.34120	104.48576	329.66309	-329.40289	85.09607	294.32654	-117.03326	41.38771	207.86586	-80.53634	68.83681	274.46820	-107.12074	48.30561	321.80240	-365.66031	1054.00842	514.95496	-120.06200	990.42255	623.56195	-211.51059	628.08978	692.71399	-204.90956	584.08350	690.53033	-150.38724	631.29706	695.59283	-150.59166	586.85425	693.00140	-183.23738	545.29486	683.15509	-126.80824	538.87030	568.83789	-240.84921	484.17480	681.92950	-250.33742	445.71909	697.11017	-182.37926	469.68643	696.55304	-200.99065	428.43311	709.48212	-279.91077	128.54662	689.35223	-236.71062	127.62721	611.29987	-335.64447	84.69738	637.65393	-121.58875	48.73860	609.66498	-94.80790	72.02067	659.81561	-130.03857	41.94525	728.23505
1496	5.98000	-362.77606	1047.71851	435.70837	-115.38321	993.45984	318.03989	-171.89619	646.11816	243.98438	-159.97150	604.58087	240.48788	-110.19178	653.44153	258.62479	-109.38406	609.77704	254.27022	-160.61891	558.00195	245.63678	-134.54147	531.18530	398.45792	-215.45784	477.91843	241.03786	-219.33174	429.60440	238.00417	-154.02576	464.57077	241.24335	-168.84064	419.00946	242.12979	-261.70850	105.15302	236.71797	-244.36551	104.54078	329.70502	-329.41013	85.11481	294.32721	-117.03226	41.39072	207.84802	-80.55227	68.83018	274.48175	-107.11059	48.29138	321.79929	-365.63882	1054.03003	514.90021	-120.04855	990.39984	623.53174	-211.51901	628.07837	692.74048	-204.92061	584.07037	690.55365	-150.41669	631.27252	695.62451	-150.62744	586.83777	693.02551	-183.27328	545.29968	683.16699	-126.77133	538.86523	568.86163	-240.84973	484.18341	681.93018	-250.31970	445.75470	697.12524	-182.36632	469.69089	696.56348	-200.97929	428.43185	709.49994	-279.88641	128.54240	689.36542	-236.71359	127.63474	611.29004	-335.62762	84.71748	637.65851	-121.61255	48.72185	609.66888	-94.81396	71.99481	659.82758	-130.04971	41.92804	728.24591
1497	5.98400	-362.81784	1047.76416	435.70236	-115.35378	993.45868	318.05112	-171.90845	646.12531	243.99026	-159.96155	604.59137	240.50046	-110.19656	653.41986	258.61728	-109.36913	609.76923	254.27473	-160.59499	558.02332	245.62979	-134.52559	531.18750	398.45529	-215.44942	477.93744	241.03676	-219.28827	429.59421	237.98828	-154.02519	464.57523	241.26530	-168.85153	419.01581	242.12656	-261.48541	105.03341	236.88142	-244.34317	104.53886	329.73270	-329.41479	85.10867	294.31079	-117.01852	41.38413	207.85426	-80.55243	68.82700	274.46625	-107.11414	48.29789	321.78467	-365.66013	1054.06836	514.89124	-120.06325	990.40692	623.54315	-211.50584	628.44733	693.00708	-204.91278	584.09833	690.56055	-150.41121	631.29742	695.67065	-150.61568	586.85236	693.04138	-183.28110	545.32941	683.19080	-126.79418	538.88318	568.89154	-240.85329	484.20462	681.93793	-250.33260	445.76196	697.14484	-182.35762	469.71399	696.57593	-200.96696	428.44830	709.50171	-279.88281	128.55904	689.37671	-236.71523	127.62773	611.31482	-335.62695	84.74400	637.63446	-121.58724	48.72422	609.67621	-94.80701	71.97775	659.81848	-130.04123	41.93197	728.25317
1498	5.98800	-362.79181	1047.73889	435.67877	-115.32034	993.48492	318.04425	-171.84769	646.11969	243.97064	-159.95279	604.59436	240.50949	-110.16869	653.43597	258.60837	-109.35014	609.76550	254.27142	-160.60735	558.03345	245.63780	-134.51131	531.21350	398.45456	-215.45238	477.93579	241.03200	-219.28087	429.60474	237.97691	-154.01843	464.56076	241.25511	-168.85095	419.02594	242.12740	-261.49408	105.03473	236.88651	-244.32759	104.54969	329.70898	-329.38849	85.11337	294.31189	-117.02187	41.41010	207.84395	-80.55273	68.85566	274.43945	-107.09362	48.31042	321.78070	-365.60379	1054.05664	514.90643	-120.01836	990.43585	623.54187	-211.48007	628.14050	692.75281	-204.90314	584.12817	690.57275	-150.38979	631.32745	695.65302	-150.59703	586.89319	693.05646	-183.22961	545.35870	683.17719	-126.75893	538.89581	568.91504	-240.79262	484.22806	681.95166	-250.29195	445.78214	697.14880	-182.34195	469.75116	696.57751	-200.95903	428.46808	709.49652	-279.84601	128.57872	689.36957	-236.69447	127.62815	611.30615	-335.60318	84.76216	637.63165	-121.56906	48.74417	609.65381	-94.78124	71.99831	659.81726	-130.00972	41.92567	728.23499
1499	5.99200	-362.79257	1047.76917	435.65509	-115.33867	993.45245	318.03522	-171.88495	646.11719	243.99292	-159.92281	604.60461	240.49463	-110.16718	653.44110	258.61011	-109.33840	609.77423	254.26898	-160.60730	558.03662	245.63486	-134.45500	531.23322	398.45383	-215.41864	477.95731	241.04202	-219.30290	429.62628	237.97998	-154.01526	464.57004	241.25191	-168.81230	419.03033	242.12450	-261.47998	105.04270	236.88297	-244.31473	104.56724	329.70190	-329.41394	85.11684	294.31042	-116.83422	41.51602	207.84085	-80.47328	68.89506	274.41971	-107.08738	48.32516	321.77975	-365.63980	1054.11658	514.86786	-119.96426	990.47430	623.52814	-211.43401	628.49829	693.02454	-204.85493	584.13739	690.58124	-150.35864	631.34845	695.64948	-150.55414	586.92090	693.05536	-183.17218	545.37866	683.16693	-126.75183	538.89227	568.93347	-240.80771	484.23712	681.93567	-250.29721	445.77585	697.13184	-182.30823	469.77084	696.57837	-200.90218	428.52170	709.48169	-279.84775	128.59534	689.37152	-236.66479	127.64577	611.33081	-335.60318	84.80612	637.62750	-121.55079	48.74146	609.65100	-94.74925	72.02166	659.81293	-129.99440	41.93569	728.23260
1500	5.99600	-362.66309	1047.73914	435.61127	-115.29859	993.47040	318.02390	-171.85275	646.16681	243.98335	-159.91075	604.60846	240.50690	-110.14940	653.44452	258.62048	-109.33186	609.79004	254.27409	-160.56177	558.04535	245.61862	-134.42438	531.23145	398.43265	-215.42128	477.94299	241.03639	-219.28525	429.62646	237.99672	-154.00111	464.58301	241.26057	-168.80722	419.04520	242.11972	-261.51035	105.04901	236.87648	-244.30975	104.56911	329.69009	-329.40158	85.10999	294.30536	-117.02966	41.40948	207.86885	-80.47301	68.93128	274.43555	-107.06100	48.34246	321.78052	-365.58212	1054.12427	514.86243	-119.93459	990.48450	623.49207	-211.40694	628.51636	693.01160	-204.85669	584.16022	690.57776	-150.31010	631.37372	695.65253	-150.51930	586.93427	693.05817	-183.14984	545.40668	683.18817	-126.70616	538.91870	568.94257	-240.74799	484.26440	681.94971	-250.26691	445.78751	697.13672	-182.28758	469.77820	696.56317	-200.86327	428.55713	709.49109	-279.80225	128.61368	689.38794	-236.65964	127.67309	611.35156	-335.55603	84.82458	637.60504	-121.52722	48.76984	609.67249	-94.74250	72.02509	659.81165	-129.97443	41.96432	728.22382
1501	6.00000	-362.66879	1047.73328	435.58594	-115.28108	993.50458	318.01932	-171.85219	646.12622	244.00441	-159.92123	604.60333	240.51273	-110.12684	653.44092	258.62637	-109.31101	609.79474	254.26524	-160.58986	558.03406	245.62515	-134.41924	531.25470	398.44916	-215.40547	477.95102	241.03369	-219.25896	429.62308	237.99948	-153.97911	464.59061	241.25870	-168.81252	419.04739	242.13094	-261.52631	105.04718	236.88695	-244.31236	104.57433	329.69928	-329.39328	85.10760	294.32733	-117.03551	41.42764	207.85027	-80.46444	68.93002	274.46716	-107.04679	48.32930	321.75784	-365.57870	1054.07019	514.83148	-119.91231	990.52002	623.50079	-211.44264	628.50781	693.01251	-204.83946	584.16724	690.58154	-150.29852	631.39838	695.68207	-150.52969	586.94464	693.08405	-183.13416	545.40118	683.18420	-126.71116	538.93982	568.97034	-240.75375	484.27094	681.95428	-250.27446	445.80960	697.13879	-182.29675	469.79782	696.57434	-200.87964	428.54523	709.50403	-279.82883	128.61299	689.37079	-236.62672	127.69459	611.36890	-335.54739	84.84263	637.61053	-121.54166	48.77660	609.67035	-94.72625	72.00735	659.81158	-129.97052	41.93787	728.23291
1502	6.00400	-362.66534	1047.74048	435.59021	-115.26617	993.50958	318.03091	-171.81169	646.16345	243.98999	-159.90219	604.61243	240.50763	-110.12542	653.44659	258.63028	-109.29785	609.78284	254.28308	-160.56758	558.05267	245.62544	-134.42892	531.24915	398.45718	-215.40833	477.94992	241.04880	-219.26422	429.62985	237.98676	-153.99220	464.58606	241.25821	-168.80647	419.04971	242.13541	-261.69867	105.17345	236.69386	-244.34024	104.56215	329.68829	-329.39087	85.09125	294.31046	-117.03226	41.40670	207.86917	-80.47186	68.94380	274.46762	-107.09047	48.33381	321.79160	-365.55783	1054.11206	514.82623	-119.91599	990.53363	623.49963	-211.44708	628.51508	693.01648	-204.85892	584.16626	690.58563	-150.35081	631.38715	695.69342	-150.55797	586.94189	693.12073	-183.15944	545.39569	683.22357	-126.67554	538.96429	568.98431	-240.80032	484.28180	681.96735	-250.30077	445.81290	697.14081	-182.32890	469.79379	696.58905	-200.89928	428.54596	709.52722	-279.80573	128.60513	689.38910	-236.63211	127.69308	611.38782	-335.56012	84.82463	637.59985	-121.54932	48.76257	609.66595	-94.75517	71.97917	659.83868	-130.00844	41.92579	728.25226
1503	6.00800	-362.67743	1047.74194	435.59677	-115.23737	993.48993	318.02551	-171.80238	646.16937	243.99828	-159.89264	604.60120	240.51509	-110.10031	653.45276	258.63809	-109.27830	609.78979	254.28856	-160.55641	558.03345	245.62878	-134.44411	531.22754	398.46863	-215.38190	477.93869	241.05072	-219.26283	429.62177	237.99626	-153.96553	464.59647	241.26797	-168.79967	419.04974	242.14383	-261.69958	105.18371	236.69966	-244.36174	104.56507	329.70465	-329.41751	85.11792	294.34454	-117.02667	41.42315	207.85847	-80.52145	68.90969	274.47827	-107.10661	48.32533	321.80219	-365.53061	1054.10083	514.81537	-119.95381	990.50037	623.49677	-211.50075	628.53796	693.02917	-204.86223	584.17584	690.60449	-150.37833	631.38977	695.71924	-150.57140	586.95654	693.14398	-183.20389	545.39746	683.24414	-126.67365	538.94629	569.00781	-240.79242	484.28595	681.98505	-250.28537	445.80740	697.15021	-182.35213	469.79492	696.61047	-200.91234	428.54105	709.54254	-279.83453	128.61215	689.38910	-236.62096	127.70473	611.42029	-335.57239	84.81680	637.63000	-121.52082	48.76205	609.66132	-94.76581	71.97847	659.86182	-130.01437	41.92622	728.25903
